<svg width="163" height="62" viewBox="0 0 163 62" fill="none" xmlns="http://www.w3.org/2000/svg">
<path d="M5.21076 12.0322C5.42501 12.4619 5.86208 12.7369 6.34199 12.7369C6.82191 12.7369 7.25897 12.4619 7.47322 12.0322L12.5638 1.8392C12.7609 1.44386 12.7351 0.979762 12.5038 0.601608C12.2724 0.223455 11.861 0 11.424 0H1.26861C0.831539 0 0.420183 0.232049 0.188796 0.601608C-0.0425919 0.979762 -0.0597317 1.44386 0.128806 1.8392L5.21076 12.0322ZM9.37574 2.54394L6.35056 8.62018L3.32538 2.54394H9.37574V2.54394ZM6.35056 37.3684C8.03884 37.3684 9.64998 36.6981 10.8412 35.5035C12.0324 34.3088 12.7009 32.6845 12.7009 31C12.7009 29.3155 12.0324 27.6912 10.8412 26.4965C9.64998 25.3019 8.03027 24.6315 6.35056 24.6315C4.67086 24.6315 3.05115 25.3019 1.85993 26.4965C0.668711 27.6912 0.00025786 29.3155 0.00025786 31C0.00025786 32.6845 0.668711 34.3088 1.85993 35.5035C3.05115 36.6981 4.66229 37.3684 6.35056 37.3684V37.3684ZM6.35056 27.1755C7.36181 27.1755 8.33021 27.5794 9.05009 28.2928C9.76139 29.0061 10.1642 29.9859 10.1642 31C10.1642 32.0141 9.76139 32.9853 9.05009 33.7072C8.33878 34.4206 7.36181 34.8245 6.35056 34.8245C5.33931 34.8245 4.37091 34.4206 3.65104 33.7072C2.93974 32.9939 2.53695 32.0141 2.53695 31C2.53695 29.9859 2.93974 29.0147 3.65104 28.2928C4.36234 27.5794 5.33931 27.1755 6.35056 27.1755ZM1.26861 62H11.4325C12.1353 62 12.7009 61.4328 12.7009 60.728V50.5351C12.7009 49.8303 12.1353 49.2631 11.4325 49.2631H1.26861C0.565872 49.2631 0.00025786 49.8303 0.00025786 50.5351V60.728C0.00025786 61.4328 0.565872 62 1.26861 62V62ZM2.53695 51.807H10.1642V59.4561H2.53695V51.807V51.807ZM22.8648 54.3596V32.272H15.6661C14.9633 32.272 14.3977 31.7047 14.3977 31C14.3977 30.2953 14.9633 29.728 15.6661 29.728H22.8648V7.64042H15.6661C14.9633 7.64042 14.3977 7.07319 14.3977 6.36845C14.3977 5.66371 14.9633 5.09648 15.6661 5.09648H24.1331C24.8359 5.09648 25.4015 5.66371 25.4015 6.36845V29.728H32.6002C33.3029 29.728 33.8686 30.2953 33.8686 31C33.8686 31.7047 33.3029 32.272 32.6002 32.272H25.4015V55.6316C25.4015 56.3363 24.8359 56.9035 24.1331 56.9035H15.6661C14.9633 56.9035 14.3977 56.3363 14.3977 55.6316C14.3977 54.9268 14.9633 54.3596 15.6661 54.3596H22.8648V54.3596Z" fill="white"/>
<path d="M49.352 24V7.2H56.192C57.104 7.2 57.928 7.432 58.664 7.896C59.416 8.344 60.016 8.96 60.464 9.744C60.912 10.528 61.136 11.4 61.136 12.36C61.136 13.32 60.912 14.192 60.464 14.976C60.016 15.76 59.416 16.392 58.664 16.872C57.928 17.336 57.104 17.568 56.192 17.568H51.944V24H49.352ZM51.944 15.072H56.144C56.576 15.072 56.968 14.952 57.32 14.712C57.672 14.456 57.952 14.128 58.16 13.728C58.384 13.312 58.496 12.856 58.496 12.36C58.496 11.864 58.384 11.416 58.16 11.016C57.952 10.616 57.672 10.296 57.32 10.056C56.968 9.816 56.576 9.696 56.144 9.696H51.944V15.072ZM64.3469 24V11.4H66.8189V24H64.3469ZM65.5469 8.616C65.0189 8.616 64.6109 8.48 64.3229 8.208C64.0349 7.936 63.8909 7.552 63.8909 7.056C63.8909 6.592 64.0349 6.216 64.3229 5.928C64.6269 5.64 65.0349 5.496 65.5469 5.496C66.0749 5.496 66.4829 5.632 66.7709 5.904C67.0589 6.176 67.2029 6.56 67.2029 7.056C67.2029 7.52 67.0509 7.896 66.7469 8.184C66.4589 8.472 66.0589 8.616 65.5469 8.616ZM72.1786 24V8.184H74.6506V24H72.1786ZM69.5626 13.8V11.4H77.5786V13.8H69.5626ZM80.4536 24V7.2H83.0456V21.504H90.9176V24H80.4536ZM98.576 24.24C97.536 24.24 96.584 23.952 95.72 23.376C94.872 22.8 94.192 22.016 93.68 21.024C93.168 20.032 92.912 18.912 92.912 17.664C92.912 16.4 93.168 15.28 93.68 14.304C94.208 13.312 94.912 12.536 95.792 11.976C96.688 11.416 97.688 11.136 98.792 11.136C99.448 11.136 100.048 11.232 100.592 11.424C101.136 11.616 101.608 11.888 102.008 12.24C102.424 12.576 102.76 12.968 103.016 13.416C103.288 13.864 103.456 14.344 103.52 14.856L102.968 14.664V11.4H105.464V24H102.968V21L103.544 20.832C103.448 21.264 103.248 21.688 102.944 22.104C102.656 22.504 102.28 22.864 101.816 23.184C101.368 23.504 100.864 23.76 100.304 23.952C99.76 24.144 99.184 24.24 98.576 24.24ZM99.224 21.96C99.976 21.96 100.64 21.776 101.216 21.408C101.792 21.04 102.24 20.536 102.56 19.896C102.896 19.24 103.064 18.496 103.064 17.664C103.064 16.848 102.896 16.12 102.56 15.48C102.24 14.84 101.792 14.336 101.216 13.968C100.64 13.6 99.976 13.416 99.224 13.416C98.488 13.416 97.832 13.6 97.256 13.968C96.696 14.336 96.248 14.84 95.912 15.48C95.592 16.12 95.432 16.848 95.432 17.664C95.432 18.496 95.592 19.24 95.912 19.896C96.248 20.536 96.696 21.04 97.256 21.408C97.832 21.776 98.488 21.96 99.224 21.96ZM108.916 24V11.4H111.388V13.992L110.956 14.28C111.116 13.72 111.428 13.208 111.892 12.744C112.356 12.264 112.908 11.88 113.548 11.592C114.188 11.288 114.844 11.136 115.516 11.136C116.476 11.136 117.276 11.328 117.916 11.712C118.556 12.08 119.036 12.648 119.356 13.416C119.676 14.184 119.836 15.152 119.836 16.32V24H117.364V16.488C117.364 15.768 117.268 15.176 117.076 14.712C116.884 14.232 116.588 13.888 116.188 13.68C115.788 13.456 115.292 13.36 114.7 13.392C114.22 13.392 113.78 13.472 113.38 13.632C112.98 13.776 112.628 13.984 112.324 14.256C112.036 14.528 111.804 14.848 111.628 15.216C111.468 15.568 111.388 15.952 111.388 16.368V24H110.164C109.956 24 109.748 24 109.54 24C109.332 24 109.124 24 108.916 24ZM129.069 24.24C127.773 24.24 126.621 23.968 125.613 23.424C124.621 22.864 123.837 22.104 123.261 21.144C122.701 20.184 122.421 19.08 122.421 17.832C122.421 16.84 122.581 15.936 122.901 15.12C123.221 14.304 123.661 13.6 124.221 13.008C124.797 12.4 125.477 11.936 126.261 11.616C127.061 11.28 127.925 11.112 128.853 11.112C129.669 11.112 130.429 11.272 131.133 11.592C131.837 11.896 132.445 12.32 132.957 12.864C133.485 13.408 133.885 14.056 134.157 14.808C134.445 15.544 134.581 16.352 134.565 17.232L134.541 18.288H124.245L123.693 16.32H132.405L132.045 16.728V16.152C131.997 15.624 131.821 15.152 131.517 14.736C131.213 14.32 130.829 13.992 130.365 13.752C129.901 13.512 129.397 13.392 128.853 13.392C127.989 13.392 127.261 13.56 126.669 13.896C126.077 14.216 125.629 14.696 125.325 15.336C125.021 15.96 124.869 16.736 124.869 17.664C124.869 18.544 125.053 19.312 125.421 19.968C125.789 20.608 126.309 21.104 126.981 21.456C127.653 21.808 128.429 21.984 129.309 21.984C129.933 21.984 130.509 21.88 131.037 21.672C131.581 21.464 132.165 21.088 132.789 20.544L134.037 22.296C133.653 22.68 133.181 23.016 132.621 23.304C132.077 23.592 131.493 23.824 130.869 24C130.261 24.16 129.661 24.24 129.069 24.24ZM49.352 54V37.2H51.896L58.016 47.16L56.792 47.136L62.984 37.2H65.384V54H62.792V47.112C62.792 45.672 62.824 44.376 62.888 43.224C62.968 42.072 63.096 40.928 63.272 39.792L63.608 40.68L58.112 49.176H56.528L51.2 40.776L51.464 39.792C51.64 40.864 51.76 41.968 51.824 43.104C51.904 44.224 51.944 45.56 51.944 47.112V54H49.352ZM74.3182 54.24C73.2782 54.24 72.3262 53.952 71.4622 53.376C70.6142 52.8 69.9342 52.016 69.4222 51.024C68.9102 50.032 68.6542 48.912 68.6542 47.664C68.6542 46.4 68.9102 45.28 69.4222 44.304C69.9502 43.312 70.6542 42.536 71.5342 41.976C72.4302 41.416 73.4302 41.136 74.5342 41.136C75.1902 41.136 75.7902 41.232 76.3342 41.424C76.8782 41.616 77.3502 41.888 77.7502 42.24C78.1662 42.576 78.5022 42.968 78.7582 43.416C79.0302 43.864 79.1982 44.344 79.2622 44.856L78.7102 44.664V41.4H81.2062V54H78.7102V51L79.2862 50.832C79.1902 51.264 78.9902 51.688 78.6862 52.104C78.3982 52.504 78.0222 52.864 77.5582 53.184C77.1102 53.504 76.6062 53.76 76.0462 53.952C75.5022 54.144 74.9262 54.24 74.3182 54.24ZM74.9662 51.96C75.7182 51.96 76.3822 51.776 76.9582 51.408C77.5342 51.04 77.9822 50.536 78.3022 49.896C78.6382 49.24 78.8062 48.496 78.8062 47.664C78.8062 46.848 78.6382 46.12 78.3022 45.48C77.9822 44.84 77.5342 44.336 76.9582 43.968C76.3822 43.6 75.7182 43.416 74.9662 43.416C74.2302 43.416 73.5742 43.6 72.9982 43.968C72.4382 44.336 71.9902 44.84 71.6542 45.48C71.3342 46.12 71.1742 46.848 71.1742 47.664C71.1742 48.496 71.3342 49.24 71.6542 49.896C71.9902 50.536 72.4382 51.04 72.9982 51.408C73.5742 51.776 74.2302 51.96 74.9662 51.96ZM84.6577 54V41.4H87.1297V43.992L86.6977 44.28C86.8577 43.72 87.1697 43.208 87.6337 42.744C88.0977 42.264 88.6497 41.88 89.2897 41.592C89.9297 41.288 90.5857 41.136 91.2577 41.136C92.2177 41.136 93.0177 41.328 93.6577 41.712C94.2977 42.08 94.7777 42.648 95.0977 43.416C95.4177 44.184 95.5777 45.152 95.5777 46.32V54H93.1057V46.488C93.1057 45.768 93.0097 45.176 92.8177 44.712C92.6257 44.232 92.3297 43.888 91.9297 43.68C91.5297 43.456 91.0337 43.36 90.4417 43.392C89.9617 43.392 89.5217 43.472 89.1217 43.632C88.7217 43.776 88.3697 43.984 88.0657 44.256C87.7777 44.528 87.5457 44.848 87.3697 45.216C87.2097 45.568 87.1297 45.952 87.1297 46.368V54H85.9057C85.6977 54 85.4897 54 85.2817 54C85.0737 54 84.8657 54 84.6577 54ZM103.779 54.24C102.739 54.24 101.787 53.952 100.923 53.376C100.075 52.8 99.3951 52.016 98.8831 51.024C98.3711 50.032 98.1151 48.912 98.1151 47.664C98.1151 46.4 98.3711 45.28 98.8831 44.304C99.4111 43.312 100.115 42.536 100.995 41.976C101.891 41.416 102.891 41.136 103.995 41.136C104.651 41.136 105.251 41.232 105.795 41.424C106.339 41.616 106.811 41.888 107.211 42.24C107.627 42.576 107.963 42.968 108.219 43.416C108.491 43.864 108.659 44.344 108.723 44.856L108.171 44.664V41.4H110.667V54H108.171V51L108.747 50.832C108.651 51.264 108.451 51.688 108.147 52.104C107.859 52.504 107.483 52.864 107.019 53.184C106.571 53.504 106.067 53.76 105.507 53.952C104.963 54.144 104.387 54.24 103.779 54.24ZM104.427 51.96C105.179 51.96 105.843 51.776 106.419 51.408C106.995 51.04 107.443 50.536 107.763 49.896C108.099 49.24 108.267 48.496 108.267 47.664C108.267 46.848 108.099 46.12 107.763 45.48C107.443 44.84 106.995 44.336 106.419 43.968C105.843 43.6 105.179 43.416 104.427 43.416C103.691 43.416 103.035 43.6 102.459 43.968C101.899 44.336 101.451 44.84 101.115 45.48C100.795 46.12 100.635 46.848 100.635 47.664C100.635 48.496 100.795 49.24 101.115 49.896C101.451 50.536 101.899 51.04 102.459 51.408C103.035 51.776 103.691 51.96 104.427 51.96ZM119.759 59.52C118.863 59.52 117.967 59.376 117.071 59.088C116.191 58.816 115.479 58.456 114.935 58.008L115.847 56.088C116.167 56.328 116.543 56.536 116.975 56.712C117.407 56.904 117.863 57.048 118.343 57.144C118.823 57.256 119.295 57.312 119.759 57.312C120.639 57.312 121.375 57.168 121.967 56.88C122.559 56.592 123.007 56.168 123.311 55.608C123.615 55.048 123.767 54.352 123.767 53.52V51.096L124.031 51.264C123.951 51.76 123.687 52.24 123.239 52.704C122.807 53.152 122.263 53.52 121.607 53.808C120.951 54.096 120.279 54.24 119.591 54.24C118.391 54.24 117.319 53.96 116.375 53.4C115.447 52.824 114.711 52.048 114.167 51.072C113.623 50.08 113.351 48.952 113.351 47.688C113.351 46.424 113.615 45.304 114.143 44.328C114.687 43.336 115.423 42.56 116.351 42C117.295 41.424 118.351 41.136 119.519 41.136C119.999 41.136 120.463 41.2 120.911 41.328C121.359 41.44 121.775 41.608 122.159 41.832C122.543 42.04 122.887 42.272 123.191 42.528C123.495 42.784 123.743 43.056 123.935 43.344C124.127 43.632 124.247 43.904 124.295 44.16L123.767 44.352V41.4H126.239V53.232C126.239 54.24 126.087 55.128 125.783 55.896C125.495 56.68 125.071 57.336 124.511 57.864C123.951 58.408 123.271 58.816 122.471 59.088C121.671 59.376 120.767 59.52 119.759 59.52ZM119.855 51.96C120.639 51.96 121.335 51.776 121.943 51.408C122.551 51.04 123.023 50.536 123.359 49.896C123.695 49.256 123.863 48.52 123.863 47.688C123.863 46.856 123.687 46.12 123.335 45.48C122.999 44.824 122.527 44.312 121.919 43.944C121.327 43.576 120.639 43.392 119.855 43.392C119.087 43.392 118.399 43.584 117.791 43.968C117.199 44.336 116.727 44.848 116.375 45.504C116.039 46.144 115.871 46.872 115.871 47.688C115.871 48.504 116.039 49.24 116.375 49.896C116.727 50.536 117.199 51.04 117.791 51.408C118.399 51.776 119.087 51.96 119.855 51.96ZM135.585 54.24C134.289 54.24 133.137 53.968 132.129 53.424C131.137 52.864 130.353 52.104 129.777 51.144C129.217 50.184 128.937 49.08 128.937 47.832C128.937 46.84 129.097 45.936 129.417 45.12C129.737 44.304 130.177 43.6 130.737 43.008C131.313 42.4 131.993 41.936 132.777 41.616C133.577 41.28 134.441 41.112 135.369 41.112C136.185 41.112 136.945 41.272 137.649 41.592C138.353 41.896 138.961 42.32 139.473 42.864C140.001 43.408 140.401 44.056 140.673 44.808C140.961 45.544 141.097 46.352 141.081 47.232L141.057 48.288H130.761L130.209 46.32H138.921L138.561 46.728V46.152C138.513 45.624 138.337 45.152 138.033 44.736C137.729 44.32 137.345 43.992 136.881 43.752C136.417 43.512 135.913 43.392 135.369 43.392C134.505 43.392 133.777 43.56 133.185 43.896C132.593 44.216 132.145 44.696 131.841 45.336C131.537 45.96 131.385 46.736 131.385 47.664C131.385 48.544 131.569 49.312 131.937 49.968C132.305 50.608 132.825 51.104 133.497 51.456C134.169 51.808 134.945 51.984 135.825 51.984C136.449 51.984 137.025 51.88 137.553 51.672C138.097 51.464 138.681 51.088 139.305 50.544L140.553 52.296C140.169 52.68 139.697 53.016 139.137 53.304C138.593 53.592 138.009 53.824 137.385 54C136.777 54.16 136.177 54.24 135.585 54.24ZM143.767 54V41.4H146.263V45.36L146.023 44.4C146.199 43.792 146.495 43.24 146.911 42.744C147.343 42.248 147.831 41.856 148.375 41.568C148.935 41.28 149.511 41.136 150.103 41.136C150.375 41.136 150.631 41.16 150.871 41.208C151.127 41.256 151.327 41.312 151.471 41.376L150.823 44.064C150.631 43.984 150.415 43.92 150.175 43.872C149.951 43.808 149.727 43.776 149.503 43.776C149.071 43.776 148.655 43.864 148.255 44.04C147.871 44.2 147.527 44.432 147.223 44.736C146.935 45.024 146.703 45.368 146.527 45.768C146.351 46.152 146.263 46.576 146.263 47.04V54H143.767Z" fill="white"/>
<path d="M5.21076 12.0322C5.42501 12.4619 5.86208 12.7369 6.34199 12.7369C6.82191 12.7369 7.25897 12.4619 7.47322 12.0322L12.5638 1.8392C12.7609 1.44386 12.7351 0.979762 12.5038 0.601608C12.2724 0.223455 11.861 0 11.424 0H1.26861C0.831539 0 0.420183 0.232049 0.188796 0.601608C-0.0425919 0.979762 -0.0597317 1.44386 0.128806 1.8392L5.21076 12.0322ZM9.37574 2.54394L6.35056 8.62018L3.32538 2.54394H9.37574V2.54394ZM6.35056 37.3684C8.03884 37.3684 9.64998 36.6981 10.8412 35.5035C12.0324 34.3088 12.7009 32.6845 12.7009 31C12.7009 29.3155 12.0324 27.6912 10.8412 26.4965C9.64998 25.3019 8.03027 24.6315 6.35056 24.6315C4.67086 24.6315 3.05115 25.3019 1.85993 26.4965C0.668711 27.6912 0.00025786 29.3155 0.00025786 31C0.00025786 32.6845 0.668711 34.3088 1.85993 35.5035C3.05115 36.6981 4.66229 37.3684 6.35056 37.3684V37.3684ZM6.35056 27.1755C7.36181 27.1755 8.33021 27.5794 9.05009 28.2928C9.76139 29.0061 10.1642 29.9859 10.1642 31C10.1642 32.0141 9.76139 32.9853 9.05009 33.7072C8.33878 34.4206 7.36181 34.8245 6.35056 34.8245C5.33931 34.8245 4.37091 34.4206 3.65104 33.7072C2.93974 32.9939 2.53695 32.0141 2.53695 31C2.53695 29.9859 2.93974 29.0147 3.65104 28.2928C4.36234 27.5794 5.33931 27.1755 6.35056 27.1755ZM1.26861 62H11.4325C12.1353 62 12.7009 61.4328 12.7009 60.728V50.5351C12.7009 49.8303 12.1353 49.2631 11.4325 49.2631H1.26861C0.565872 49.2631 0.00025786 49.8303 0.00025786 50.5351V60.728C0.00025786 61.4328 0.565872 62 1.26861 62V62ZM2.53695 51.807H10.1642V59.4561H2.53695V51.807V51.807ZM22.8648 54.3596V32.272H15.6661C14.9633 32.272 14.3977 31.7047 14.3977 31C14.3977 30.2953 14.9633 29.728 15.6661 29.728H22.8648V7.64042H15.6661C14.9633 7.64042 14.3977 7.07319 14.3977 6.36845C14.3977 5.66371 14.9633 5.09648 15.6661 5.09648H24.1331C24.8359 5.09648 25.4015 5.66371 25.4015 6.36845V29.728H32.6002C33.3029 29.728 33.8686 30.2953 33.8686 31C33.8686 31.7047 33.3029 32.272 32.6002 32.272H25.4015V55.6316C25.4015 56.3363 24.8359 56.9035 24.1331 56.9035H15.6661C14.9633 56.9035 14.3977 56.3363 14.3977 55.6316C14.3977 54.9268 14.9633 54.3596 15.6661 54.3596H22.8648V54.3596Z" fill="white"/>
<path d="M49.352 24V7.2H56.192C57.104 7.2 57.928 7.432 58.664 7.896C59.416 8.344 60.016 8.96 60.464 9.744C60.912 10.528 61.136 11.4 61.136 12.36C61.136 13.32 60.912 14.192 60.464 14.976C60.016 15.76 59.416 16.392 58.664 16.872C57.928 17.336 57.104 17.568 56.192 17.568H51.944V24H49.352ZM51.944 15.072H56.144C56.576 15.072 56.968 14.952 57.32 14.712C57.672 14.456 57.952 14.128 58.16 13.728C58.384 13.312 58.496 12.856 58.496 12.36C58.496 11.864 58.384 11.416 58.16 11.016C57.952 10.616 57.672 10.296 57.32 10.056C56.968 9.816 56.576 9.696 56.144 9.696H51.944V15.072ZM64.3469 24V11.4H66.8189V24H64.3469ZM65.5469 8.616C65.0189 8.616 64.6109 8.48 64.3229 8.208C64.0349 7.936 63.8909 7.552 63.8909 7.056C63.8909 6.592 64.0349 6.216 64.3229 5.928C64.6269 5.64 65.0349 5.496 65.5469 5.496C66.0749 5.496 66.4829 5.632 66.7709 5.904C67.0589 6.176 67.2029 6.56 67.2029 7.056C67.2029 7.52 67.0509 7.896 66.7469 8.184C66.4589 8.472 66.0589 8.616 65.5469 8.616ZM72.1786 24V8.184H74.6506V24H72.1786ZM69.5626 13.8V11.4H77.5786V13.8H69.5626ZM80.4536 24V7.2H83.0456V21.504H90.9176V24H80.4536ZM98.576 24.24C97.536 24.24 96.584 23.952 95.72 23.376C94.872 22.8 94.192 22.016 93.68 21.024C93.168 20.032 92.912 18.912 92.912 17.664C92.912 16.4 93.168 15.28 93.68 14.304C94.208 13.312 94.912 12.536 95.792 11.976C96.688 11.416 97.688 11.136 98.792 11.136C99.448 11.136 100.048 11.232 100.592 11.424C101.136 11.616 101.608 11.888 102.008 12.24C102.424 12.576 102.76 12.968 103.016 13.416C103.288 13.864 103.456 14.344 103.52 14.856L102.968 14.664V11.4H105.464V24H102.968V21L103.544 20.832C103.448 21.264 103.248 21.688 102.944 22.104C102.656 22.504 102.28 22.864 101.816 23.184C101.368 23.504 100.864 23.76 100.304 23.952C99.76 24.144 99.184 24.24 98.576 24.24ZM99.224 21.96C99.976 21.96 100.64 21.776 101.216 21.408C101.792 21.04 102.24 20.536 102.56 19.896C102.896 19.24 103.064 18.496 103.064 17.664C103.064 16.848 102.896 16.12 102.56 15.48C102.24 14.84 101.792 14.336 101.216 13.968C100.64 13.6 99.976 13.416 99.224 13.416C98.488 13.416 97.832 13.6 97.256 13.968C96.696 14.336 96.248 14.84 95.912 15.48C95.592 16.12 95.432 16.848 95.432 17.664C95.432 18.496 95.592 19.24 95.912 19.896C96.248 20.536 96.696 21.04 97.256 21.408C97.832 21.776 98.488 21.96 99.224 21.96ZM108.916 24V11.4H111.388V13.992L110.956 14.28C111.116 13.72 111.428 13.208 111.892 12.744C112.356 12.264 112.908 11.88 113.548 11.592C114.188 11.288 114.844 11.136 115.516 11.136C116.476 11.136 117.276 11.328 117.916 11.712C118.556 12.08 119.036 12.648 119.356 13.416C119.676 14.184 119.836 15.152 119.836 16.32V24H117.364V16.488C117.364 15.768 117.268 15.176 117.076 14.712C116.884 14.232 116.588 13.888 116.188 13.68C115.788 13.456 115.292 13.36 114.7 13.392C114.22 13.392 113.78 13.472 113.38 13.632C112.98 13.776 112.628 13.984 112.324 14.256C112.036 14.528 111.804 14.848 111.628 15.216C111.468 15.568 111.388 15.952 111.388 16.368V24H110.164C109.956 24 109.748 24 109.54 24C109.332 24 109.124 24 108.916 24ZM129.069 24.24C127.773 24.24 126.621 23.968 125.613 23.424C124.621 22.864 123.837 22.104 123.261 21.144C122.701 20.184 122.421 19.08 122.421 17.832C122.421 16.84 122.581 15.936 122.901 15.12C123.221 14.304 123.661 13.6 124.221 13.008C124.797 12.4 125.477 11.936 126.261 11.616C127.061 11.28 127.925 11.112 128.853 11.112C129.669 11.112 130.429 11.272 131.133 11.592C131.837 11.896 132.445 12.32 132.957 12.864C133.485 13.408 133.885 14.056 134.157 14.808C134.445 15.544 134.581 16.352 134.565 17.232L134.541 18.288H124.245L123.693 16.32H132.405L132.045 16.728V16.152C131.997 15.624 131.821 15.152 131.517 14.736C131.213 14.32 130.829 13.992 130.365 13.752C129.901 13.512 129.397 13.392 128.853 13.392C127.989 13.392 127.261 13.56 126.669 13.896C126.077 14.216 125.629 14.696 125.325 15.336C125.021 15.96 124.869 16.736 124.869 17.664C124.869 18.544 125.053 19.312 125.421 19.968C125.789 20.608 126.309 21.104 126.981 21.456C127.653 21.808 128.429 21.984 129.309 21.984C129.933 21.984 130.509 21.88 131.037 21.672C131.581 21.464 132.165 21.088 132.789 20.544L134.037 22.296C133.653 22.68 133.181 23.016 132.621 23.304C132.077 23.592 131.493 23.824 130.869 24C130.261 24.16 129.661 24.24 129.069 24.24ZM49.352 54V37.2H51.896L58.016 47.16L56.792 47.136L62.984 37.2H65.384V54H62.792V47.112C62.792 45.672 62.824 44.376 62.888 43.224C62.968 42.072 63.096 40.928 63.272 39.792L63.608 40.68L58.112 49.176H56.528L51.2 40.776L51.464 39.792C51.64 40.864 51.76 41.968 51.824 43.104C51.904 44.224 51.944 45.56 51.944 47.112V54H49.352ZM74.3182 54.24C73.2782 54.24 72.3262 53.952 71.4622 53.376C70.6142 52.8 69.9342 52.016 69.4222 51.024C68.9102 50.032 68.6542 48.912 68.6542 47.664C68.6542 46.4 68.9102 45.28 69.4222 44.304C69.9502 43.312 70.6542 42.536 71.5342 41.976C72.4302 41.416 73.4302 41.136 74.5342 41.136C75.1902 41.136 75.7902 41.232 76.3342 41.424C76.8782 41.616 77.3502 41.888 77.7502 42.24C78.1662 42.576 78.5022 42.968 78.7582 43.416C79.0302 43.864 79.1982 44.344 79.2622 44.856L78.7102 44.664V41.4H81.2062V54H78.7102V51L79.2862 50.832C79.1902 51.264 78.9902 51.688 78.6862 52.104C78.3982 52.504 78.0222 52.864 77.5582 53.184C77.1102 53.504 76.6062 53.76 76.0462 53.952C75.5022 54.144 74.9262 54.24 74.3182 54.24ZM74.9662 51.96C75.7182 51.96 76.3822 51.776 76.9582 51.408C77.5342 51.04 77.9822 50.536 78.3022 49.896C78.6382 49.24 78.8062 48.496 78.8062 47.664C78.8062 46.848 78.6382 46.12 78.3022 45.48C77.9822 44.84 77.5342 44.336 76.9582 43.968C76.3822 43.6 75.7182 43.416 74.9662 43.416C74.2302 43.416 73.5742 43.6 72.9982 43.968C72.4382 44.336 71.9902 44.84 71.6542 45.48C71.3342 46.12 71.1742 46.848 71.1742 47.664C71.1742 48.496 71.3342 49.24 71.6542 49.896C71.9902 50.536 72.4382 51.04 72.9982 51.408C73.5742 51.776 74.2302 51.96 74.9662 51.96ZM84.6577 54V41.4H87.1297V43.992L86.6977 44.28C86.8577 43.72 87.1697 43.208 87.6337 42.744C88.0977 42.264 88.6497 41.88 89.2897 41.592C89.9297 41.288 90.5857 41.136 91.2577 41.136C92.2177 41.136 93.0177 41.328 93.6577 41.712C94.2977 42.08 94.7777 42.648 95.0977 43.416C95.4177 44.184 95.5777 45.152 95.5777 46.32V54H93.1057V46.488C93.1057 45.768 93.0097 45.176 92.8177 44.712C92.6257 44.232 92.3297 43.888 91.9297 43.68C91.5297 43.456 91.0337 43.36 90.4417 43.392C89.9617 43.392 89.5217 43.472 89.1217 43.632C88.7217 43.776 88.3697 43.984 88.0657 44.256C87.7777 44.528 87.5457 44.848 87.3697 45.216C87.2097 45.568 87.1297 45.952 87.1297 46.368V54H85.9057C85.6977 54 85.4897 54 85.2817 54C85.0737 54 84.8657 54 84.6577 54ZM103.779 54.24C102.739 54.24 101.787 53.952 100.923 53.376C100.075 52.8 99.3951 52.016 98.8831 51.024C98.3711 50.032 98.1151 48.912 98.1151 47.664C98.1151 46.4 98.3711 45.28 98.8831 44.304C99.4111 43.312 100.115 42.536 100.995 41.976C101.891 41.416 102.891 41.136 103.995 41.136C104.651 41.136 105.251 41.232 105.795 41.424C106.339 41.616 106.811 41.888 107.211 42.24C107.627 42.576 107.963 42.968 108.219 43.416C108.491 43.864 108.659 44.344 108.723 44.856L108.171 44.664V41.4H110.667V54H108.171V51L108.747 50.832C108.651 51.264 108.451 51.688 108.147 52.104C107.859 52.504 107.483 52.864 107.019 53.184C106.571 53.504 106.067 53.76 105.507 53.952C104.963 54.144 104.387 54.24 103.779 54.24ZM104.427 51.96C105.179 51.96 105.843 51.776 106.419 51.408C106.995 51.04 107.443 50.536 107.763 49.896C108.099 49.24 108.267 48.496 108.267 47.664C108.267 46.848 108.099 46.12 107.763 45.48C107.443 44.84 106.995 44.336 106.419 43.968C105.843 43.6 105.179 43.416 104.427 43.416C103.691 43.416 103.035 43.6 102.459 43.968C101.899 44.336 101.451 44.84 101.115 45.48C100.795 46.12 100.635 46.848 100.635 47.664C100.635 48.496 100.795 49.24 101.115 49.896C101.451 50.536 101.899 51.04 102.459 51.408C103.035 51.776 103.691 51.96 104.427 51.96ZM119.759 59.52C118.863 59.52 117.967 59.376 117.071 59.088C116.191 58.816 115.479 58.456 114.935 58.008L115.847 56.088C116.167 56.328 116.543 56.536 116.975 56.712C117.407 56.904 117.863 57.048 118.343 57.144C118.823 57.256 119.295 57.312 119.759 57.312C120.639 57.312 121.375 57.168 121.967 56.88C122.559 56.592 123.007 56.168 123.311 55.608C123.615 55.048 123.767 54.352 123.767 53.52V51.096L124.031 51.264C123.951 51.76 123.687 52.24 123.239 52.704C122.807 53.152 122.263 53.52 121.607 53.808C120.951 54.096 120.279 54.24 119.591 54.24C118.391 54.24 117.319 53.96 116.375 53.4C115.447 52.824 114.711 52.048 114.167 51.072C113.623 50.08 113.351 48.952 113.351 47.688C113.351 46.424 113.615 45.304 114.143 44.328C114.687 43.336 115.423 42.56 116.351 42C117.295 41.424 118.351 41.136 119.519 41.136C119.999 41.136 120.463 41.2 120.911 41.328C121.359 41.44 121.775 41.608 122.159 41.832C122.543 42.04 122.887 42.272 123.191 42.528C123.495 42.784 123.743 43.056 123.935 43.344C124.127 43.632 124.247 43.904 124.295 44.16L123.767 44.352V41.4H126.239V53.232C126.239 54.24 126.087 55.128 125.783 55.896C125.495 56.68 125.071 57.336 124.511 57.864C123.951 58.408 123.271 58.816 122.471 59.088C121.671 59.376 120.767 59.52 119.759 59.52ZM119.855 51.96C120.639 51.96 121.335 51.776 121.943 51.408C122.551 51.04 123.023 50.536 123.359 49.896C123.695 49.256 123.863 48.52 123.863 47.688C123.863 46.856 123.687 46.12 123.335 45.48C122.999 44.824 122.527 44.312 121.919 43.944C121.327 43.576 120.639 43.392 119.855 43.392C119.087 43.392 118.399 43.584 117.791 43.968C117.199 44.336 116.727 44.848 116.375 45.504C116.039 46.144 115.871 46.872 115.871 47.688C115.871 48.504 116.039 49.24 116.375 49.896C116.727 50.536 117.199 51.04 117.791 51.408C118.399 51.776 119.087 51.96 119.855 51.96ZM135.585 54.24C134.289 54.24 133.137 53.968 132.129 53.424C131.137 52.864 130.353 52.104 129.777 51.144C129.217 50.184 128.937 49.08 128.937 47.832C128.937 46.84 129.097 45.936 129.417 45.12C129.737 44.304 130.177 43.6 130.737 43.008C131.313 42.4 131.993 41.936 132.777 41.616C133.577 41.28 134.441 41.112 135.369 41.112C136.185 41.112 136.945 41.272 137.649 41.592C138.353 41.896 138.961 42.32 139.473 42.864C140.001 43.408 140.401 44.056 140.673 44.808C140.961 45.544 141.097 46.352 141.081 47.232L141.057 48.288H130.761L130.209 46.32H138.921L138.561 46.728V46.152C138.513 45.624 138.337 45.152 138.033 44.736C137.729 44.32 137.345 43.992 136.881 43.752C136.417 43.512 135.913 43.392 135.369 43.392C134.505 43.392 133.777 43.56 133.185 43.896C132.593 44.216 132.145 44.696 131.841 45.336C131.537 45.96 131.385 46.736 131.385 47.664C131.385 48.544 131.569 49.312 131.937 49.968C132.305 50.608 132.825 51.104 133.497 51.456C134.169 51.808 134.945 51.984 135.825 51.984C136.449 51.984 137.025 51.88 137.553 51.672C138.097 51.464 138.681 51.088 139.305 50.544L140.553 52.296C140.169 52.68 139.697 53.016 139.137 53.304C138.593 53.592 138.009 53.824 137.385 54C136.777 54.16 136.177 54.24 135.585 54.24ZM143.767 54V41.4H146.263V45.36L146.023 44.4C146.199 43.792 146.495 43.24 146.911 42.744C147.343 42.248 147.831 41.856 148.375 41.568C148.935 41.28 149.511 41.136 150.103 41.136C150.375 41.136 150.631 41.16 150.871 41.208C151.127 41.256 151.327 41.312 151.471 41.376L150.823 44.064C150.631 43.984 150.415 43.92 150.175 43.872C149.951 43.808 149.727 43.776 149.503 43.776C149.071 43.776 148.655 43.864 148.255 44.04C147.871 44.2 147.527 44.432 147.223 44.736C146.935 45.024 146.703 45.368 146.527 45.768C146.351 46.152 146.263 46.576 146.263 47.04V54H143.767Z" fill="white"/>
</svg>
